<?xml version="1.0" encoding="UTF-8"?>
<svg id="_Слой_2" data-name="Слой 2" xmlns="http://www.w3.org/2000/svg" viewBox="0 0 24.25 24.26">
  <defs>
    <style>
      .cls-1 {
        fill: #fff;
      }

      .cls-2 {
        fill: #1d1d1b;
      }
    </style>
  </defs>
  <g id="_Слой_8" data-name="Слой 8">
    <path class="cls-2" d="M.4,4.96v1.42c0,.72,.04,1.44,0,2.16-.04,.65-.15,1.3-.16,1.96s0,1.31,0,1.97,.04,1.35-.01,2.02c-.04,.48-.1,.96-.14,1.44C-.03,17.01,0,18.1,0,19.19c0,.6,.1,1.21,.27,1.78,.08,.26,.13,.52,.25,.77,.15,.32,.33,.58,.56,.85s.57,.52,.89,.69c.37,.2,.71,.3,1.13,.38,1.9,.36,3.83,.34,5.75,.41,1.12,.04,2.23,.04,3.35,.04,.86,0,1.73-.04,2.58,.01,1.6,.09,3.23,.16,4.84,.09,.48-.02,.97-.04,1.44-.1,.41-.05,.82-.15,1.22-.23,.51-.1,1.08-.29,1.41-.73,.22-.3,.27-.7,.35-1.05,.12-.56,.2-1.09,.2-1.67,0-1-.18-2.02-.3-3.01-.12-.91-.24-1.82-.35-2.73s-.23-1.82-.28-2.73c-.05-.8,.02-1.61,.06-2.41,.04-.87,.09-1.72-.08-2.58-.12-.59-.33-1.17-.45-1.76-.1-.49-.07-1-.14-1.49-.07-.44-.16-.92-.31-1.34-.44-1.22-1.95-1.41-3.07-1.54-2.34-.27-4.68-.57-7.03-.77-1.01-.09-2.04-.13-3.05-.06s-2.08,.26-3.1,.45c-1.17,.21-2.38,.36-3.49,.78-.17,.06-.32,.13-.47,.24-.17,.13-.24,.34-.39,.49-.27,.26-.75,.1-1.08,.24-.27,.12-.42,.31-.42,.61,0,.36,.03,.73,.03,1.1v1.29"/>
    <path class="cls-1" d="M6.43,16.02c-.2-.9,.05-1.95,.16-2.84,.14-1.15,.14-2.3,.12-3.46-.02-.72-.07-1.44-.18-2.16-.06-.37-.23-.58,.14-.63,.46-.06,.97,0,1.43,0,.75,0,1.5,0,2.25,0,.82,0,.82-1.27,0-1.27-.87,0-1.75,.01-2.62,0-.47,0-.95-.06-1.42,.04-.5,.1-.93,.41-1.07,.91-.19,.67,.11,1.48,.16,2.15,.1,1.39,.11,2.83-.05,4.22-.13,1.09-.38,2.27-.14,3.37,.18,.8,1.41,.46,1.23-.34h0Z"/>
    <path class="cls-1" d="M6.07,12.03h3.21c.33,0,.65-.29,.64-.64s-.28-.64-.64-.64h-3.21c-.33,0-.65,.29-.64,.64s.28,.64,.64,.64h0Z"/>
    <path class="cls-1" d="M5.81,16.83c.6,0,1.19,0,1.79,.01,.08,0,.08,0,.02,0,.04,0,.08,.01,.13,.02,.08,.02,.17,.03,.25,.05,.17,.04,.33,.08,.5,.12,.41,.09,.8,.11,1.22,.05,.33-.05,.54-.48,.44-.78-.12-.36-.43-.5-.78-.44,.12-.02-.12,0-.15,0-.02,0-.27-.02-.14,0-.17-.02-.33-.06-.5-.11-.35-.08-.69-.17-1.05-.19-.57-.03-1.15-.01-1.72-.01-.33,0-.65,.29-.64,.64s.28,.64,.64,.64h0Z"/>
    <path class="cls-1" d="M13.75,16.6c0-1.9,0-3.8,0-5.69,0-.9-.05-1.8-.13-2.69-.06-.66-.12-1.33-.03-1.99,.05-.34-.32-.63-.64-.64-.38,0-.59,.3-.64,.64-.09,.66-.03,1.33,.03,1.99,.08,.9,.13,1.79,.13,2.69,0,1.9,0,3.8,0,5.69,0,.82,1.27,.82,1.27,0h0Z"/>
    <path class="cls-1" d="M17.13,8.18c.96,2.72,1,5.56,1,8.42,0,.82,1.27,.82,1.27,0,0-2.96-.05-5.94-1.05-8.76-.27-.77-1.5-.44-1.23,.34h0Z"/>
    <path class="cls-1" d="M14.09,8.44s.03-.09,.04-.13c.02-.1-.08,.14,0,0,.02-.04,.05-.08,.07-.12,.08-.14-.07,.06,0,0,.07-.07,.14-.13,.2-.2,.07-.07-.12,.08,.02-.01,.04-.03,.08-.06,.13-.08,.09-.06,.19-.1,.28-.15,.06-.03,.05-.02-.04,.02,.03-.01,.05-.02,.08-.03,.05-.02,.1-.04,.16-.05,.11-.03,.22-.06,.33-.09,.06-.01,.11-.02,.17-.03,.13-.03-.15,.01,.02,0,.22-.02,.43-.01,.65,0,.11,0-.15-.03,.03,0,.05,.01,.1,.02,.16,.03,.09,.02,.22,.04,.3,.09-.15-.11-.03,0,.02,.02,.04,.02,.09,.05,.13,.08,.15,.08-.05-.06,.02,0,.03,.03,.07,.06,.11,.1,.02,.02,.03,.04,.05,.05,.04,.05,.03,.04-.03-.04,.03,.02,.06,.09,.08,.12,.02,.04,.13,.17,.02,.02,.03,.04,.04,.11,.05,.15,.1,.33,.45,.54,.78,.44s.54-.45,.44-.78c-.56-1.91-3.24-1.94-4.61-.94-.41,.3-.76,.69-.87,1.2-.07,.32,.1,.7,.44,.78,.32,.07,.7-.1,.78-.44h0Z"/>
  </g>
</svg>