<?xml version="1.0" encoding="UTF-8"?>
<svg id="_Слой_2" data-name="Слой 2" xmlns="http://www.w3.org/2000/svg" viewBox="0 0 1393.25 188.08">
  <defs>
    <style>
      .cls-1 {
        fill: #fff;
      }
    </style>
  </defs>
  <g id="_Слой_8" data-name="Слой 8">
    <path class="cls-1" d="M1.99,.72C-2.65,31.66,.85,63.42,12.38,92.52c5.54,13.97,14.94,25.32,18.96,39.93,5.03,18.3,6.01,35.18-2.25,52.71-.54,1.15,1.07,2.14,1.73,1.01,1.07-1.86,2.21-3.63,3.41-5.41l-1.73-1.01c-1.11,1.82-2.25,3.62-3.41,5.41l1.83,.77c.45-2.61-.4-2.74-1.83-.77l1.83,.77c7.32-20.87,32.85-22.83,51.61-24.71,23.07-2.31,45.98-4.98,68.99-7.59,47.08-5.34,94.72-6.73,142.07-6.95,23.77-.11,47.55,.1,71.33-.31,23.61-.41,47.13-2.64,70.75-2.13,23.05,.5,45.84,3.41,68.9,.85,9.26-1.02,16.14-4.58,24.48-8.61,10.45-5.04,21.07-9.8,32.08-13.51,22.72-7.64,45.49-8.71,69.13-5.43,23.54,3.27,45.99,10.57,68.85,16.76,11,2.98,22.06,5.74,33.13,8.42,9.76,2.36,18.33,3.38,28.17,.65,10.25-2.85,19.81-8.13,29.76-11.89,10.66-4.03,21.5-7.61,32.49-10.63,45.28-12.45,91.96-14.19,137.54-2.17,22.57,5.95,43.74,15.99,65.76,23.6,21.46,7.42,43.3,14.43,65.4,19.66,22.14,5.25,44.79,7.62,67.48,8.87,11.54,.63,23.1,.97,34.66,1.26,5.81,.15,11.63,.28,17.44,.43,2.87,.07,5.83-.05,8.63,.73,3.37,.95,5.86,3.31,8.88,4.97,8.48,4.7,18.03,3.9,27.47,4.34,11.93,.57,23.89,.98,35.83,.38,21.6-1.09,42.98-5.41,63.49-12.23,9.51-3.16,18.83-6.86,28.02-10.84,1.18-.51,.16-2.23-1.01-1.73-21.21,9.17-43.25,16.59-66.14,20.19-24.05,3.78-47.93,2.82-72.13,1.63-7.18-.35-12.42-2.12-18.36-5.89-2.96-1.88-5.74-3.06-9.28-3.42-11.9-1.18-24.23-.56-36.19-.94-24.43-.77-49.02-2.09-73.1-6.48-22.78-4.15-44.92-11.27-66.93-18.33-22.25-7.14-43.52-16.93-65.7-24.11-42.68-13.83-87.5-15.82-131.38-6.86-21.92,4.47-43.32,11.33-64,19.82-10.68,4.39-20.9,9.97-32.83,9.5-12.07-.48-24.82-5.15-36.5-8.18-42.71-11.08-87.06-28.33-131.8-18.8-20.37,4.34-39.02,13.33-57.65,22.3-11.24,5.42-23.91,5.58-36.24,5.72s-23.34-.93-35.04-1.54c-24.13-1.27-47.94,.7-72.02,1.36s-47.51,.52-71.27,.55c-47.81,.06-95.85,1.09-143.45,5.84-23.66,2.36-47.13,5.59-70.79,7.88-16.55,1.6-36.48,1.81-50.77,11.51-5.66,3.85-9.46,9.09-11.71,15.52-.4,1.14,1.21,1.63,1.83,.77,1.19-1.65,2.94-3.7,1.5-5.56-.26-.34-.87-.37-1.21-.16-1.66,1.02-1.81,3.17-2.11,4.95-.19,1.09,1.19,1.77,1.83,.77,1.15-1.8,2.29-3.59,3.41-5.41,.68-1.11-1.01-2.07-1.73-1.01-1.2,1.78-2.33,3.55-3.41,5.41l1.73,1.01c6.27-13.31,8.38-27.29,5.48-41.8-1.46-7.28-3.32-14.69-5.99-21.62s-6.78-11.71-10.2-17.78C2.97,74.61-1.18,35.22,3.92,1.26,4.1,0,2.18-.55,1.99,.72h0Z"/>
    <path class="cls-1" d="M1387.39,3.45c.09,3.8-.61,7.61-1.24,11.34-.84,4.97-1.79,9.93-2.53,14.92s-1.38,10.32-1.38,15.52c0,4.52,.43,9.2,2.15,13.42,.77,1.88,1.78,3.64,3.13,5.17,.69,.78,1.54,1.39,2.23,2.16,.84,.94,1.27,2.15,1.43,3.38,.38,2.89-.51,5.91-1.56,8.57s-2.55,5.53-4.49,7.81c-4.15,4.87-9.84,8.1-14.25,12.7-2.13,2.22-4.13,4.71-5.89,7.24-1.46,2.09-2.56,4.41-2.67,6.99-.14,3.18,1.21,6.08,2.42,8.94,1.57,3.68,3.11,7.38,4.67,11.06,3.1,7.32,6.27,14.61,9.87,21.7,.89,1.75,1.8,3.48,2.74,5.2,.62,1.13,2.34,.12,1.73-1.01-3.77-6.9-7.07-14.04-10.19-21.25-1.59-3.67-3.14-7.37-4.7-11.06-1.45-3.45-3.35-6.95-4.23-10.6-1.43-5.95,3.16-10.71,6.79-14.85,4.14-4.72,9.68-7.9,14.01-12.42,3.93-4.11,6.84-9.84,7.64-15.49,.35-2.5,.24-5.28-1.22-7.44-1.16-1.71-2.96-2.84-4.1-4.6-2.35-3.62-3.16-8.04-3.42-12.28-.31-5.06,.12-10.15,.76-15.16s1.6-10.22,2.5-15.32c.72-4.07,1.49-8.18,1.74-12.32,.05-.77,.07-1.55,.05-2.32-.03-1.28-2.03-1.29-2,0h0Z"/>
  </g>
</svg>