<?xml version="1.0" encoding="UTF-8"?>
<svg id="_Слой_2" data-name="Слой 2" xmlns="http://www.w3.org/2000/svg" viewBox="0 0 13.38 80.63">
  <defs>
    <style>
      .cls-1 {
        fill: #fff;
      }
    </style>
  </defs>
  <g id="_Слой_8" data-name="Слой 8">
    <path class="cls-1" d="M11.5,.48C8.62,5.36,5.18,9.95,3,15.21c-1.07,2.57-1.85,5.35-1.96,8.15-.1,2.63,.42,5.24,1.11,7.76,1.26,4.56,3.56,9.49,2.46,14.31-.29,1.27-.76,2.51-1.13,3.76s-.77,2.6-1.14,3.9c-.76,2.74-1.44,5.52-1.86,8.33-.96,6.42-.52,12.97,2.71,18.72,.63,1.12,2.36,.12,1.73-1.01-2.79-4.97-3.32-10.63-2.64-16.21,.33-2.71,.94-5.38,1.64-8.01s1.4-5.13,2.24-7.64c1.63-4.85,.03-9.71-1.4-14.39-.74-2.41-1.46-4.87-1.67-7.4-.21-2.65,.25-5.24,1.09-7.76C6.15,11.82,10.09,6.8,13.23,1.49c.66-1.11-1.07-2.12-1.73-1.01h0Z"/>
  </g>
</svg>