<?xml version="1.0" encoding="UTF-8"?>
<svg id="_Слой_2" data-name="Слой 2" xmlns="http://www.w3.org/2000/svg" viewBox="0 0 23.57 23.68">
  <defs>
    <style>
      .cls-1 {
        fill: #fff;
      }
    </style>
  </defs>
  <g id="_Слой_8" data-name="Слой 8">
    <g id="_сети" data-name="сети">
      <g>
        <path class="cls-1" d="M1.62,8.92c0-1.03,.21-2.03,.21-3.06,0-.96,.46-1.62,1.11-2.31,.54-.58,1.31-1.03,2.03-1.38s1.63-.67,2.46-.75c1.81-.17,3.63,0,5.44,0,1.01,0,2.02,0,3.04,0,.48,0,.9,.04,1.36,.13,.17,.03,.33,.09,.5,.14,.14,.04,.41,0,.53,.07,.75,.44,1.43-.73,.68-1.17-.35-.21-.8-.21-1.2-.32-.46-.12-.93-.2-1.4-.21-1.17-.02-2.34-.01-3.51,0-2.05,.02-4.15-.23-6.19,.11-.9,.15-1.9,.55-2.69,1.01-.84,.48-1.62,.96-2.26,1.71s-1.13,1.49-1.22,2.46c-.06,.58-.02,1.17-.1,1.75s-.13,1.2-.13,1.81c0,.87,1.35,.87,1.35,0h0Z"/>
        <path class="cls-1" d="M18.46,1.98c.83,0,1.88,.57,2.42,1.2,.71,.83,1.04,1.91,1.21,2.96s.18,2.11-.02,3.13c-.17,.86-.2,1.69-.29,2.56-.08,.78,1.11,.88,1.33,.18l.05-.11-1.24-.16c.06,.35-.16,.92-.2,1.28-.04,.41-.07,.82-.07,1.23-.01,.92-.01,1.83,0,2.75,.01,.84-.04,1.7-.13,2.53-.04,.33-.05,.73-.33,.93-.18,.14-.79,.35-1.01,.3-.85-.19-1.21,1.11-.36,1.3,.78,.17,2.08-.21,2.57-.86,.6-.8,.47-1.98,.56-2.92,.12-1.16,.04-2.35,.04-3.51,0-.58,0-1.17,.07-1.75s.25-1.08,.15-1.64c-.11-.6-.96-.62-1.24-.16-.09,.14-.14,.27-.19,.44l1.33,.18c.05-.47,.05-.94,.09-1.41,.05-.59,.23-1.17,.29-1.76,.13-1.24,.01-2.57-.3-3.78-.55-2.14-2.4-4.26-4.76-4.25-.87,0-.87,1.35,0,1.35h0Z"/>
        <path class="cls-1" d="M.22,8.71c0,1.96-.27,3.91-.21,5.87,.06,2.16,.31,4.41,1.17,6.42,.34,.78,1.15,1.4,1.92,1.72,.44,.18,.89,.38,1.34,.52,.58,.18,1.18,.16,1.78,.18,1.21,.04,2.41,.22,3.62,.25s2.34,0,3.51,0,2.25-.17,3.38-.35,2.26-.66,3.41-.92c.85-.19,.49-1.5-.36-1.3-.9,.2-1.77,.57-2.67,.77s-1.87,.33-2.81,.42c-2.09,.19-4.26,.04-6.34-.1-.5-.04-1.01-.08-1.51-.1-.55-.03-1.12,.02-1.65-.15-.78-.24-1.83-.61-2.31-1.31s-.64-1.85-.81-2.68c-.21-1.02-.24-2.1-.31-3.15s.01-2.08,.12-3.11,.08-1.99,.08-2.98c0-.87-1.35-.87-1.35,0H.22Z"/>
        <path class="cls-1" d="M19.75,22.47c.22,0,.42-.04,.61-.14,.16-.09,.3-.23,.44-.36,.22-.21,.42-.43,.64-.65,.12-.12,.2-.3,.2-.48s-.07-.36-.2-.48-.3-.21-.48-.2-.35,.07-.48,.2c-.28,.28-.55,.6-.86,.85l.14-.11s-.07,.05-.11,.07l.16-.07s-.07,.02-.11,.03l.18-.02s-.09,0-.13,0c-.17,0-.36,.08-.48,.2s-.21,.31-.2,.48,.07,.36,.2,.48,.3,.2,.48,.2h0Z"/>
        <path class="cls-1" d="M18.47,4.56c.18,0,.35-.03,.53-.06l-.18,.02c.07,0,.14-.02,.22-.02l-.18-.02s.07,.01,.1,.02l-.16-.07c.11,.05,.23,.1,.34,.14l-.16-.07c.07,.03,.13,.07,.2,.12,.1,.07-.08-.08-.03-.02,.02,.03,.05,.05,.07,.08,.02,.02,.04,.05,.06,.07,.01,.01,.02,.03,.03,.04,.03,.04,.02,.02-.05-.07,0,.03,.04,.07,.05,.09,.02,.03,.03,.06,.04,.1l-.07-.16c.03,.08,.06,.16,.08,.24l-.02-.18c.01,.11,.01,.23,0,.34l.02-.18c-.02,.12-.07,.23-.11,.34l.07-.16s-.06,.13-.07,.12c-.01,0,.11-.12,.04-.06-.02,.02-.04,.04-.06,.06-.04,.04-.08,.07-.11,.11-.03,.03-.02,.02,.03-.02,.05-.04,.06-.04,.03-.03-.01,0-.06,.03-.07,.03l.16-.07c-.12,.04-.25,.06-.37,.08l.18-.02c-.14,.02-.3,.03-.44,.01l.18,.02c-.07-.01-.13-.03-.2-.06l.16,.07s.13,.11,.06,.04c-.01-.01-.1-.11-.03-.02,.07,.08,0,0,0-.01-.02-.03-.03-.05-.05-.08-.06-.1-.12-.2-.16-.3l.07,.16c-.05-.12-.1-.25-.16-.37l.07,.16c-.03-.09-.05-.18-.06-.28l.02,.18c-.02-.17-.04-.34-.08-.5l.02,.18v-.04c0,.06-.02,.12-.03,.18,.01-.07,.02-.14,.04-.2l-.07,.16s.05-.08,.07-.12c.04-.06-.1,.13-.05,.07,.05-.06-.14,.11-.03,.03,.06-.04,.11-.08,.17-.13-.02,.02-.13,.08-.05,.04,.05-.03,.11-.06,.16-.08l-.16,.07h.03c.17-.09,.31-.16,.4-.32,.08-.14,.12-.36,.07-.52s-.15-.32-.31-.4-.36-.14-.52-.07c-.21,.09-.37,.17-.55,.31-.09,.07,.1-.08,.03-.03-.06,.05-.13,.09-.18,.14-.07,.07-.13,.15-.19,.23-.09,.12-.14,.26-.16,.41-.03,.17-.04,.31,0,.47,.01,.07,.03,.15,.04,.22l-.02-.18c.02,.15,.03,.3,.07,.45,.03,.13,.1,.26,.16,.38l-.07-.16c.18,.46,.45,.98,.94,1.17,.22,.08,.45,.09,.68,.07,.22-.01,.45-.05,.66-.11,.24-.08,.42-.23,.6-.4,.19-.19,.29-.39,.38-.64,.07-.21,.1-.41,.1-.63,0-.27-.08-.49-.19-.74-.09-.2-.23-.39-.39-.55-.21-.21-.47-.34-.74-.44l.16,.07c-.19-.09-.37-.16-.58-.15-.16,.01-.31,.04-.46,.06l.18-.02c-.07,0-.14,0-.21,0-.35,0-.69,.31-.68,.68s.3,.68,.68,.68h0Z"/>
        <path class="cls-1" d="M8.58,9.89c-.06,.56-.14,.21,0,.19,0,0,.13-.09,.13-.09,.18-.13,.35-.26,.51-.41,.34-.31,.68-.59,1.15-.68s.96-.02,1.44-.05,.94-.11,1.41,.03c.79,.23,1.26,.69,1.63,1.41s.89,1.5,.95,2.35,.03,1.73-.54,2.46-1.24,1.04-2.06,1.28c-.42,.12-.83,.21-1.27,.25s-.99,.15-1.41,.01c-.35-.12-.67-.43-.93-.68-.34-.32-.69-.64-.98-1s-.53-.82-.73-1.22c-.22-.42-.25-.88-.27-1.35-.04-.87,.39-1.8,1.09-2.31,.3-.22,.44-.58,.24-.93-.17-.29-.63-.46-.93-.24-.87,.64-1.52,1.59-1.72,2.67-.23,1.22,.14,2.41,.76,3.43s1.38,1.83,2.32,2.52,2.25,.54,3.38,.34,2.26-.63,3.12-1.47,1.3-1.9,1.29-3.1c0-.56-.01-1.15-.18-1.69s-.51-1.05-.77-1.58c-.5-1.01-1.1-1.93-2.22-2.32-.65-.23-1.25-.27-1.93-.22s-1.44-.04-2.14,.13c-.66,.16-1.16,.57-1.66,1.01-.44,.39-.98,.62-1.04,1.27-.09,.87,1.27,.86,1.35,0h0Z"/>
        <path class="cls-1" d="M6.38,9.89c-.02-.42-.15,.09,.02-.15,.07-.1,.18-.2,.26-.28,.21-.22,.44-.42,.65-.64,.48-.53,1.09-.8,1.72-1.13,.53-.28,1.03-.42,1.63-.51,.76-.12,1.57-.3,2.34-.26,.67,.03,1.3,.33,1.85,.7,.24,.16,.47,.34,.7,.51,.31,.23,.49,.5,.75,.77,.41,.42,.7,.88,1.05,1.35,.19,.25,.48,.5,.6,.79s.07,.62,.08,.91c.02,1.43-.18,3.02-.74,4.34-.13,.3-.27,.66-.54,.85-.22,.16-.49,.27-.72,.43-.6,.41-1.29,.75-1.96,1.03-.61,.26-1.15,.54-1.84,.46s-1.39-.34-2.07-.48c-1.17-.24-2.47-1.03-3.27-1.92-1.03-1.13-1.72-2.48-1.75-4.03-.01-.76,.1-1.41,.54-2.05s.88-1.13,1.06-1.94-1.12-1.21-1.3-.36-.77,1.28-1.15,1.99c-.43,.82-.53,1.67-.5,2.59,.06,1.63,.75,3.03,1.74,4.3,.91,1.16,2.39,2.16,3.8,2.61,.73,.23,1.54,.39,2.29,.55,.83,.17,1.64,.12,2.41-.22s1.55-.7,2.29-1.13,1.47-.77,1.89-1.5c.39-.68,.65-1.45,.82-2.21,.2-.92,.36-1.94,.37-2.87,0-.65,.07-1.45-.27-2.03-.2-.34-.49-.63-.71-.95-.27-.38-.5-.8-.81-1.14-.98-1.08-2.17-2.16-3.62-2.55-1.01-.28-2.01-.07-3.02,.07-.86,.12-1.66,.25-2.44,.65-.86,.44-1.6,.87-2.26,1.56-.57,.59-1.25,1-1.21,1.9s1.4,.87,1.35,0h0Z"/>
      </g>
    </g>
  </g>
</svg>