<?xml version="1.0" encoding="UTF-8"?>
<svg id="_Слой_2" data-name="Слой 2" xmlns="http://www.w3.org/2000/svg" viewBox="0 0 23.6 23.6">
  <defs>
    <style>
      .cls-1 {
        fill: #fff;
      }

      .cls-2 {
        fill: #1d1d1b;
      }
    </style>
  </defs>
  <g id="_Слой_8" data-name="Слой 8">
    <g>
      <path class="cls-2" d="M5.99,.47c-.19,.08-3.14,1.27-4.71,1.91-.59,.24-.95,.81-.95,1.45,0,0,0,0,0,.01v1.26"/>
      <path class="cls-2" d="M.39,4.82v1.38c0,.7,.04,1.4,0,2.1-.04,.64-.15,1.27-.16,1.91s0,1.28,0,1.91,.04,1.31-.01,1.96c-.04,.47-.1,.94-.14,1.4C-.03,16.55,0,17.61,0,18.68c0,.59,.1,1.17,.26,1.73,.08,.25,.13,.51,.25,.75,.15,.31,.32,.57,.55,.82s.56,.51,.87,.68c.36,.2,.69,.3,1.1,.37,1.85,.35,3.72,.33,5.6,.4,1.09,.04,2.17,.04,3.26,.04,.84,0,1.68-.04,2.51,.01,1.56,.09,3.14,.16,4.71,.09,.46-.02,.94-.03,1.4-.09,.4-.05,.79-.15,1.19-.22,.5-.1,1.05-.28,1.37-.71,.22-.29,.27-.68,.34-1.02,.11-.55,.2-1.07,.19-1.63,0-.97-.17-1.96-.29-2.93-.11-.89-.24-1.77-.34-2.66s-.22-1.77-.27-2.65c-.04-.78,.02-1.57,.06-2.35,.04-.85,.09-1.67-.08-2.51-.12-.58-.32-1.13-.43-1.71-.1-.48-.07-.97-.14-1.45-.06-.43-.15-.89-.3-1.3-.43-1.19-1.9-1.37-2.99-1.49-2.28-.26-4.56-.55-6.84-.75-.98-.08-1.98-.13-2.96-.05s-2.02,.26-3.01,.44"/>
    </g>
    <path class="cls-1" d="M6.64,16.49c0-1.69,0-3.38-.21-5.06-.1-.79-.23-1.58-.35-2.37s-.33-1.59-.33-2.37-1.23-.8-1.24,0c0,.74,.19,1.51,.3,2.24,.13,.83,.27,1.67,.38,2.5,.22,1.68,.21,3.37,.21,5.06,0,.8,1.24,.8,1.24,0h0Z"/>
    <path class="cls-1" d="M5.31,8.7c.96-.02,1.88-.35,2.82-.51,.19-.03,.31-.05,.53-.05,.21,0,.46-.04,.64,.03s.38,.21,.54,.32c.08,.05,.15,.1,.22,.16,.1,.07-.05-.04,.04,.04,.26,.21,.62,.25,.88,0,.22-.22,.26-.66,0-.88-.34-.27-.7-.53-1.09-.72-.5-.24-1.1-.22-1.64-.15s-1.06,.19-1.59,.31c-.49,.11-.91,.22-1.36,.23-.8,.02-.8,1.25,0,1.24h0Z"/>
    <path class="cls-1" d="M12.4,7c0,.74-.03,1.48,0,2.22,.02,.78,.12,1.56,.17,2.34,.06,.85,.12,1.7,.29,2.54,.14,.69,.35,1.46,.83,2,.45,.5,1.21,.94,1.89,.97s1.33-.35,1.79-.84c1.01-1.09,1.46-2.75,1.69-4.17,.27-1.65,.49-3.3,.49-4.96h-1.24v.24h1.24v-.12c0-.8-1.24-.8-1.24,0v.12c0,.8,1.24,.8,1.24,0v-.24c0-.8-1.24-.8-1.24,0,0,1.59-.2,3.16-.46,4.72-.14,.83-.35,1.64-.69,2.4-.26,.57-.65,1.46-1.35,1.59s-1.33-.61-1.52-1.19c-.29-.85-.38-1.74-.45-2.62s-.17-1.7-.2-2.56,0-1.63,0-2.44-1.24-.8-1.24,0h0Z"/>
  </g>
</svg>