<?xml version="1.0" encoding="UTF-8"?>
<svg id="_Слой_2" data-name="Слой 2" xmlns="http://www.w3.org/2000/svg" viewBox="0 0 23.27 23.82">
  <defs>
    <style>
      .cls-1 {
        fill: #fff;
      }
    </style>
  </defs>
  <g id="_Слой_8" data-name="Слой 8">
    <g id="_сети" data-name="сети">
      <path class="cls-1" d="M3.14,5.78c0,.15,.02,.03,.11-.05,.09-.08,.16-.18,.23-.27,.13-.16,.24-.34,.36-.51,.26-.36,.58-.64,.91-.94,.76-.71,1.75-1.06,2.7-1.46,1.04-.45,2.11-.88,3.25-1,1.06-.11,2.38-.36,3.43-.05,.97,.28,1.9,.92,2.74,1.48s1.53,1.18,2.28,1.82c.39,.34,.75,.63,1,1.1,.23,.43,.51,.78,.77,1.19s.39,.94,.53,1.39c.17,.53,.41,1.15,.47,1.7,.06,.59,.02,1.25-.03,1.84s-.02,1.14-.02,1.71c0,.54-.01,1.02-.13,1.55s-.42,.82-.59,1.29c-.29,.82,1.02,1.18,1.3,.36-.08,.23,.19-.22,.24-.32,.13-.24,.23-.52,.31-.78,.14-.5,.22-1.04,.22-1.56,0-1.21,.05-2.4,.06-3.61,0-1.27-.49-2.57-.96-3.74-.19-.48-.51-.79-.76-1.23-.3-.51-.53-1.04-.97-1.46-1.69-1.61-3.69-3.03-5.84-3.93-1.1-.46-2.53-.24-3.67-.13-1.33,.14-2.57,.45-3.79,1s-2.47,.97-3.48,1.9c-.41,.38-.79,.76-1.12,1.22-.35,.49-.88,.87-.89,1.52-.02,.87,1.34,.87,1.35,0h0Z"/>
      <path class="cls-1" d="M1.93,5.49c-.45,.67-.86,1.26-1.12,2.04-.28,.83-.48,1.73-.62,2.6-.26,1.62-.28,3.39,.16,4.98s1.3,2.85,2.18,4.18c.42,.63,.92,1.24,1.52,1.7,.64,.49,1.36,.68,2.15,.81,.85,.14,1.22-1.17,.36-1.3-.69-.11-1.32-.25-1.86-.71-.28-.23-.4-.48-.61-.77-.18-.26-.41-.45-.57-.72-.35-.59-.78-1.13-1.13-1.72-.37-.63-.61-1.29-.79-2-.34-1.39-.34-2.98-.06-4.38,.14-.74,.31-1.48,.54-2.2s.62-1.22,1.02-1.83c.48-.73-.69-1.4-1.17-.68h0Z"/>
      <path class="cls-1" d="M5.23,21.42c.25,.75,1.18,1.23,1.86,1.54,.84,.38,1.71,.58,2.62,.71s1.81,.23,2.73,.06c.86-.16,1.7-.44,2.53-.72s1.77-.64,2.57-1.08,1.47-1.02,2.17-1.55c.61-.46,1.18-.95,1.68-1.53,.52-.62,1.15-1.39,1.37-2.18,.23-.84-1.07-1.2-1.3-.36-.17,.62-.74,1.27-1.15,1.75s-.9,.88-1.4,1.25c-.58,.43-1.15,.86-1.75,1.26-.67,.44-1.47,.76-2.22,1.03-1.36,.5-2.85,1.02-4.32,.85-.77-.09-1.53-.19-2.26-.46-.39-.14-.76-.28-1.13-.49-.18-.1-.34-.22-.5-.34-.06-.04-.22-.24-.17-.1-.28-.82-1.58-.47-1.3,.36h0Z"/>
      <path class="cls-1" d="M3.58,11.01c.25,.07,.54,.34,.75,.49,.27,.19,.55,.34,.81,.55,.62,.5,1.26,.99,1.89,1.48,.15,.12,.3,.24,.46,.34,.08,.05,.17,.1,.26,.14-.17-.28-.23-.34-.19-.2-.03,.06,.06,.39,.07,.46,.02,.17,.05,.35,.07,.52,.05,.42,.14,.84,.21,1.26,.06,.35,.05,.79,.26,1.09,.27,.38,.71,.43,1.06,.14,.24-.2,.51-.39,.75-.6,.17-.14,.34-.29,.51-.44s.51-.21,.06-.15l-.48-.2c.26,.24,.47,.44,.77,.63,.32,.21,.63,.43,.9,.7,.59,.58,1.25,1.09,1.86,1.65,.64,.59,1.6-.36,.96-.96-.55-.51-1.11-.99-1.68-1.48-.27-.23-.5-.5-.79-.71-.25-.18-.57-.32-.8-.52s-.35-.47-.73-.48c-.29,0-.61,.19-.82,.36-.49,.4-.97,.82-1.45,1.22l1.06,.14c-.06-.08-.05-.35-.07-.47-.04-.26-.09-.53-.13-.79-.07-.41-.13-.83-.19-1.24-.04-.28-.06-.59-.22-.84-.21-.31-.64-.46-.93-.69-.65-.51-1.3-1.01-1.94-1.53-.3-.24-.63-.42-.94-.64s-.62-.44-.97-.55c-.83-.25-1.19,1.05-.36,1.3h0Z"/>
      <path class="cls-1" d="M14.75,18.33c0-.56,.31-1.05,.52-1.56,.25-.59,.48-1.21,.64-1.83s.3-1.2,.6-1.75c.17-.3,.34-.58,.45-.91,.05-.15,.09-.3,.12-.46,0-.03,.04-.3,.05-.31,.21-.3,.05-.75-.24-.93-.34-.2-.72-.06-.93,.24-.19,.28-.16,.61-.25,.93s-.28,.57-.43,.86c-.17,.33-.34,.67-.43,1.03-.07,.31-.16,.61-.25,.92-.17,.61-.37,1.25-.65,1.83-.29,.61-.55,1.23-.56,1.92-.01,.87,1.34,.87,1.35,0h0Z"/>
      <path class="cls-1" d="M3.8,11.03c1.29-.02,2.52-.33,3.74-.72,.61-.2,1.2-.45,1.82-.61s1.3-.33,1.95-.5c1.27-.32,2.54-.63,3.79-1.04,.62-.2,1.27-.29,1.88-.5,.47-.16,1.01-.15,1.44-.42,.73-.47,.05-1.64-.68-1.17-.35,.22-.89,.21-1.28,.35-.59,.21-1.23,.28-1.83,.47-1.2,.4-2.45,.7-3.68,1s-2.3,.63-3.45,1.01-2.43,.76-3.71,.77c-.87,.01-.87,1.36,0,1.35h0Z"/>
      <path class="cls-1" d="M17.44,6.62c0,.25,0,.35-.07,.57s-.13,.44-.21,.65c-.15,.41-.26,.84-.44,1.24-.21,.45-.37,.9-.55,1.37-.08,.2-.16,.44-.25,.61-.14,.25-.24,.46-.27,.75-.04,.36,.34,.68,.68,.68,.4,0,.64-.31,.68-.68-.05,.16-.05,.18,0,.07,.03-.04,.05-.09,.08-.13,.07-.12,.12-.25,.17-.38,.09-.25,.2-.49,.29-.74,.15-.41,.36-.84,.53-1.26s.31-.88,.47-1.32c.17-.47,.27-.93,.26-1.42-.02-.87-1.37-.87-1.35,0h0Z"/>
      <path class="cls-1" d="M17.53,6.18c-.5,.15-.88,.6-1.28,.91-.21,.17-.46,.29-.68,.45s-.43,.33-.64,.49c-.48,.37-.99,.71-1.46,1.08-.41,.32-.83,.62-1.3,.86-.68,.34-.21,1.48,.52,1.24,.1-.03,.19-.08,.28-.12,.12-.05,.25-.05,.06-.03l-.66-1.13c.24-.21-.12,.09-.19,.14-.18,.13-.37,.23-.54,.37-.06,.05-.28,.18-.02,.03-.02,.01-.04,.03-.05,.04-.09,.05-.17,.11-.26,.17-.36,.23-.71,.45-1.07,.67l.82,1.06h.01c.64-.61-.32-1.56-.96-.97h-.01c-.56,.54,.16,1.46,.82,1.07,.38-.23,.76-.46,1.13-.7,.44-.28,.9-.58,1.28-.91,.22-.2,.25-.57,.11-.82-.16-.28-.46-.35-.76-.31-.1,.01-.2,.08-.3,.12-.08,.04-.35,.13-.04,.03l.52,1.24c.48-.24,.89-.56,1.32-.88,.47-.36,.97-.67,1.43-1.05,.39-.31,.79-.58,1.2-.86,.25-.17,.48-.37,.71-.56,.1-.08,.19-.16,.29-.24,.02-.01,.13-.09,.08-.08,.83-.26,.48-1.56-.36-1.3h0Z"/>
      <path class="cls-1" d="M9.92,11.92c0,.07,0,.14,0,.22,0,.12,.03,.24,.05,.37l-.02-.18c0,.12,.02,.25,.04,.37l-.02-.18c.01,.16,0,.32,.01,.48s.02,.32,.02,.48c0,.17,.07,.35,.2,.48,.12,.12,.31,.21,.48,.2,.37-.02,.68-.3,.68-.68v-.04c0-.17-.08-.36-.2-.48s-.31-.21-.48-.2c-.37,.02-.68,.3-.68,.68v.04h1.35c0-.18-.02-.36-.03-.53-.02-.23,0-.45-.05-.67l.02,.18s0-.08,0-.12c0-.09-.02-.17-.04-.26l.02,.18c-.01-.11,0-.21,0-.32,0-.17-.08-.36-.2-.48s-.31-.21-.48-.2c-.37,.02-.67,.3-.68,.68h0Z"/>
      <path class="cls-1" d="M11.37,13.89c.26-.14,.44-.43,.66-.62,.2-.18,.4-.35,.6-.52,.17-.14,.32-.28,.47-.44s.32-.31,.47-.46,.42-.38,.45-.61c.05-.32-.08-.78-.47-.83-.24-.03-.42,0-.62,.13-.06,.04-.12,.1-.18,.13l.82,.11h0c.04,.27,.07,.54,.11,.82-.18,.25-.03,.06,.03,0,.05-.05,.1-.09,.15-.13,.11-.1,.22-.19,.33-.3,.24-.23,.47-.48,.71-.72s.48-.45,.71-.69c.07-.07,.13-.15,.19-.23s.08-.14,.13-.15c-.07,.02-.25,.15,.07-.03,.14-.08,.22-.18,.31-.31,.21-.3,.05-.75-.24-.93-.34-.2-.71-.06-.93,.24l-.03,.04,.24-.24c.21-.12-.14,.08-.19,.11-.08,.06-.17,.13-.24,.2-.17,.18-.17,.23-.32,.38-.25,.25-.5,.48-.75,.72s-.47,.5-.73,.73c-.21,.19-.44,.37-.61,.6-.19,.25-.07,.61,.11,.82h0c.2,.24,.56,.23,.82,.11,.04-.02,.08-.06,.12-.08,.08-.05,.27-.14,0-.04h-.35c-.16-.28-.31-.55-.47-.83,0-.05,.26-.36,.1-.2-.04,.04-.07,.09-.11,.13-.07,.07-.14,.14-.21,.21-.15,.15-.31,.29-.45,.45-.12,.13-.27,.24-.4,.36-.18,.16-.36,.31-.54,.47-.05,.04-.09,.08-.14,.12-.06,.05-.12,.11-.17,.17-.03,.03-.06,.07-.09,.1-.03,.04-.11,.09-.01,.04-.32,.17-.42,.62-.24,.93,.19,.33,.6,.41,.93,.24h0Z"/>
      <path class="cls-1" d="M15.85,9.29h0c0,.06-.02,.12-.02,.18,0,0,0-.02,0-.03l-.07,.16s.03-.06,.05-.08l-.11,.14c.05-.06,.1-.13,.15-.19,.02-.02,.04-.05,.05-.07l-.11,.14s.04-.04,.06-.06c.07-.06,.11-.13,.14-.22,.04-.08,.06-.17,.06-.26,0-.09-.02-.18-.06-.26-.03-.08-.07-.16-.14-.22l-.14-.11c-.11-.06-.22-.09-.34-.09l-.18,.02c-.11,.03-.21,.09-.3,.17-.01,0-.02,.02-.03,.03,0,0-.01,.01-.02,.02-.04,.05-.08,.1-.12,.15-.02,.03-.04,.05-.06,.08l.11-.14c-.05,.07-.11,.14-.16,.21,0,.01-.02,.03-.03,.04,0,0,0,0,0,0l-.07,.16s0,0,0,.01c-.02,.06-.02,.14-.03,.2,0,.09,.02,.18,.06,.26,.03,.08,.07,.16,.14,.22,.06,.07,.13,.11,.22,.14,.08,.04,.17,.06,.26,.06l.18-.02c.11-.03,.21-.09,.3-.17l.11-.14c.06-.11,.09-.22,.09-.34h0Z"/>
      <path class="cls-1" d="M15.28,9.9c.13-.01,.26-.03,.38-.1,.06-.04,.13-.09,.18-.14,.07-.08,.13-.17,.19-.25l-.11,.14s.03-.03,.05-.05l-.14,.11c.1-.07,.19-.14,.27-.23,.05-.06,.11-.11,.16-.17,.11-.11,.23-.21,.35-.31,.05-.04,.11-.08,.16-.13s.08-.1,.13-.15c.1-.1,.18-.21,.29-.3l-.14,.11s.05-.04,.08-.05c.15-.09,.27-.24,.31-.4s.02-.38-.07-.52c-.2-.31-.6-.43-.93-.24-.17,.1-.3,.23-.43,.37-.09,.1-.18,.22-.29,.31-.12,.1-.24,.19-.35,.3-.06,.06-.12,.12-.18,.18-.05,.05-.1,.12-.16,.17l.14-.11c-.1,.08-.19,.15-.27,.25-.04,.05-.08,.1-.11,.15l.11-.14s-.03,.04-.05,.05l.14-.11s-.02,.01-.03,.02l.16-.07h-.01c.06,0,.12-.01,.18-.02h-.01c-.18,.02-.34,.06-.48,.2-.12,.12-.21,.31-.2,.48s.07,.36,.2,.48c.12,.11,.3,.22,.48,.2h0Z"/>
    </g>
  </g>
</svg>