<?xml version="1.0" encoding="UTF-8"?>
<svg id="_Слой_2" data-name="Слой 2" xmlns="http://www.w3.org/2000/svg" viewBox="0 0 22.95 23.45">
  <defs>
    <style>
      .cls-1 {
        fill: #fff;
      }
    </style>
  </defs>
  <g id="_Слой_8" data-name="Слой 8">
    <g id="_сети" data-name="сети">
      <path class="cls-1" d="M7.32,21.72c-.71,0-1.56,.14-2.26-.01-.64-.14-1.3-.49-1.87-.81-.21-.12-.46-.22-.64-.38-.23-.22-.41-.57-.56-.85-.32-.65-.52-1.47-.59-2.19-.13-1.38-.05-2.81-.05-4.19,0-.77-.03-1.54-.01-2.31,.01-.63,.12-1.23,.03-1.85-.12-.86-1.42-.49-1.3,.36,.04,.29-.02,.64-.04,.93-.02,.41-.03,.81-.03,1.22C.02,12.49,.01,13.35,.01,14.21c0,1.6-.09,3.27,.35,4.82,.2,.71,.48,1.44,.91,2.05,.39,.55,.95,.84,1.53,1.14,.62,.32,1.31,.65,2,.8,.79,.17,1.72,.05,2.52,.05,.87,0,.87-1.35,0-1.35h0Z"/>
      <path class="cls-1" d="M1.37,9.71c0-1.28-.06-2.53,.2-3.78,.17-.83,.38-2.09,1.09-2.63,.39-.3,.8-.61,1.21-.87s1-.36,1.46-.5c1.04-.34,2.22-.42,3.31-.42,1.18,0,2.36-.14,3.55-.14,.45,0,.9,.05,1.35,.08,.57,.05,1.15-.04,1.7,.08,.93,.21,1.9,.13,2.83,.4s1.99,.65,2.43,1.52c.24,.46,.49,.87,.61,1.38s.19,1.02,.2,1.56c.02,.65,.04,1.29,.04,1.94,0,.31-.02,.63,0,.94,.01,.28,.12,.47,.18,.73,.2,.85,1.5,.49,1.3-.36-.06-.24-.12-.36-.13-.61,0-.35,0-.71,0-1.06,0-.62-.02-1.22-.04-1.84-.04-1.14-.35-2.12-.88-3.11s-1.27-1.58-2.31-2.03-2.15-.55-3.28-.72c-.48-.07-.94-.18-1.43-.17-.67,0-1.32-.01-1.99-.07-1.31-.11-2.64,.11-3.95,.11-1.2,0-2.47,.08-3.63,.41-.52,.15-1.08,.31-1.58,.5-.55,.2-1.02,.66-1.49,1s-.8,.67-1.09,1.21c-.27,.51-.42,1.07-.6,1.61C-.11,6.41,.01,8.1,.01,9.71c0,.87,1.35,.87,1.35,0h0Z"/>
      <path class="cls-1" d="M21.27,9.41c-.02,1.8,.42,3.56,.32,5.37-.05,.95-.26,1.88-.42,2.82-.12,.71-.2,1.5-.58,2.12-.89,1.44-2.85,1.89-4.43,2.06-.82,.09-1.64,.09-2.45,.19-.36,.04-.74,.08-1.11,.08-.31,0-1.01,.14-1.3,.02l.47,.47-.07-.19c-.3-.81-1.61-.46-1.3,.36,.18,.47,.41,.71,.93,.73,.49,.01,1.02-.02,1.5-.04,.99-.05,2-.13,2.99-.22,.93-.09,1.9-.15,2.78-.49s1.84-.78,2.51-1.4,1-1.47,1.21-2.31c.24-1,.36-2.07,.51-3.09,.16-1.11,.16-2.21,.08-3.33-.08-1.06-.28-2.09-.27-3.15,.01-.87-1.34-.87-1.35,0h0Z"/>
      <path class="cls-1" d="M7.36,23.07c.21,0,.42,0,.63,0,.12,0,.14,0,.22,0,.14,.02,.28,.04,.42,.06,.41,.05,.82,.09,1.23,.09s.81,0,1.22,.01c.48,.01,1.02,.05,1.33-.39,.14-.2,.11-.48,0-.68-.25-.46-.76-.36-1.19-.35s-.83,.17-1.07,.56c-.19,.31-.07,.74,.24,.93s.73,.07,.93-.24c-.03,.04-.06,.07-.09,.1-.08,.03-.08,.04,0,.01h-.08c.05,0,.1,0,.16,0,.16,0,.33-.03,.49-.02l-.34-.09h.03c-.08-.07-.16-.15-.24-.23v.03c.01-.23,.01-.46,.01-.68v.02c.07-.08,.15-.16,.23-.24,.25-.05,.32-.07,.21-.07-.06,0-.11,0-.17,0-.09,0-.17,0-.26,0-.19,0-.37-.01-.56-.01-.37,0-.73,0-1.1,0-.33,0-.73-.05-.99-.09-.42-.07-.83-.06-1.25-.06-.35,0-.69,.31-.68,.68s.3,.68,.68,.68h0Z"/>
      <path class="cls-1" d="M3.51,7.74c0,.63,.02,1.24,.16,1.86,.12,.55,.29,1.09,.42,1.64,.32,1.32,.69,2.57,1.46,3.7s2.03,1.66,3.24,2.06c.72,.24,1.41,.39,2.16,.41,.29,.01,.58-.01,.86,0,.33,0,.65,.1,.97-.05,.68-.31,.35-1.16,.31-1.72-.05-.7-.1-1.41-.1-2.11,0-.87-1.35-.87-1.35,0,0,.58,.02,1.17,.07,1.75,.04,.46,.13,1,.16,1.4l.09-.34-.03,.06,.4-.31c-.2,.07-.52-.03-.73-.03-.28,0-.55,0-.83,0-.61-.03-1.14-.19-1.72-.38-.53-.17-1.07-.42-1.55-.71s-.77-.63-1.06-1.08c-.61-.95-.85-2.05-1.11-3.13-.11-.46-.24-.92-.35-1.39-.13-.54-.15-1.06-.15-1.62,.01-.87-1.34-.87-1.35,0h0Z"/>
      <path class="cls-1" d="M12.32,14.19c.25,0,.54-.04,.78,.04,.2,.07,.4,.21,.59,.31,.42,.22,.85,.52,1.13,.92s.41,.93,.58,1.4c.1,.29,.25,.6,.58,.69,.26,.07,.56-.03,.83-.03,.57,.01,1.12-.06,1.69-.11,.19-.02,.37,0,.61-.13,.31-.16,.46-.49,.42-.83-.07-.52-.4-.9-.66-1.33-.23-.39-.44-.8-.66-1.21-.27-.49-.74-.9-1.15-1.28-.47-.44-.98-.86-1.57-1.13-.33-.15-.73-.09-.93,.24-.17,.29-.09,.77,.24,.93,.46,.21,.84,.52,1.22,.85,.19,.17,.37,.35,.54,.54,.14,.15,.31,.28,.42,.45,.26,.39,.42,.78,.61,1.12,.11,.2,.24,.39,.38,.57,.08,.11,.22,.31,.21,.42l.09-.34-.04,.05,.24-.24-.05,.02,.34-.09c-.37,.05-.77,.12-1.2,.12-.23,0-.46,.02-.7,.02s-.53,.05-.71,.05l.58,.33c-.12-.15-.15-.39-.21-.57-.09-.25-.18-.49-.3-.73-.23-.49-.53-.91-.95-1.27s-.86-.57-1.31-.83c-.53-.3-1.05-.32-1.65-.32-.87,0-.87,1.35,0,1.35h0Z"/>
      <path class="cls-1" d="M15.12,12.78c.18,0,.36-.01,.52-.11,.11-.06,.2-.16,.3-.24,.07-.06,.14-.13,.21-.2,.04-.04,.09-.09,.13-.13,.09-.09-.04,.02,.01-.02,.21-.15,.34-.34,.52-.52,.04-.05,.09-.09,.14-.13-.1,.09,.03-.02,.06-.05,.1-.08,.17-.16,.25-.25s.17-.17,.24-.27c.09-.12-.1,.1,.02-.02,.03-.03,.06-.06,.09-.09,.16-.16,.26-.34,.37-.54,.25-.45,.43-.97,.57-1.46l-.83,.47h.02c-.17-.21-.33-.43-.5-.65v.02c.03,.19,.06,.34,.2,.48,.12,.12,.31,.21,.48,.2,.33-.01,.73-.3,.68-.68v-.02c-.04-.3-.19-.57-.5-.65h-.02c-.35-.1-.73,.11-.83,.47-.06,.21-.13,.41-.2,.6-.04,.09-.07,.19-.11,.28,0,0-.07,.17-.04,.1,.03-.07-.04,.08-.05,.09-.04,.08-.09,.16-.14,.24,0,0-.06,.09-.05,.1-.01-.01,.11-.12,0-.03-.06,.05-.11,.11-.15,.17l-.11,.14c-.04,.06-.04,.06,0,0,.03-.04,.03-.04,0-.02-.02,.02-.03,.03-.05,.05-.05,.05-.12,.12-.16,.18-.04,.07,.11-.08-.01,.02-.06,.05-.12,.09-.18,.14-.15,.13-.27,.29-.4,.44-.05,.05-.07,.08,0,.02-.06,.06-.14,.1-.2,.15-.07,.06-.13,.12-.2,.19-.07,.07-.14,.14-.21,.2-.03,.02-.06,.05-.09,.07-.07,.06-.03,.05,.12-.04,.17-.05,.2-.08,.1-.08-.35-.02-.69,.32-.68,.68,.02,.38,.3,.66,.68,.68h0Z"/>
      <path class="cls-1" d="M4.18,8.46c.43,0,.87,0,1.29-.04,.17-.02,.33-.04,.51-.04,.11,0,.21,0,.32,0h.11c.14,0,.15,0,.05,0l-.4-.31,.03,.04-.09-.34c.03-.2-.02,.11-.03,.15,0,.08,0,.16,0,.24,0,.17-.03,.34-.03,.51,0,.41,.02,.81,.12,1.22,.09,.37,.2,.73,.29,1.1,.09,.41,.18,.82,.35,1.21,.15,.33,.39,.59,.61,.87,.23,.3,.47,.6,.76,.85,.57,.48,1.4,.74,2.14,.73,.87-.01,.87-1.37,0-1.35-.35,0-.75-.09-1.07-.27s-.57-.52-.79-.81c-.29-.38-.48-.66-.59-1.13s-.22-.93-.35-1.39c-.11-.41-.13-.8-.1-1.22s.17-1.03-.32-1.31c-.35-.2-.92-.14-1.31-.11-.5,.05-.99,.07-1.49,.07-.87,0-.87,1.36,0,1.35h0Z"/>
      <path class="cls-1" d="M10.91,13.96c0-1.05-.13-2.08-.06-3.14,.04-.54,.04-1.1,.04-1.64,0-.25,0-.48,.02-.72,.01-.13-.01-.48,0-.59l-1.13,.3,.02,.02c.28,.24,.68,.27,.96,0,.24-.24,.28-.72,0-.96l-.02-.02c-.35-.3-1.04-.24-1.13,.3-.05,.28-.03,.55-.05,.78-.02,.26-.04,.52-.03,.79,.01,.54,0,1.1-.03,1.64s-.07,1.03-.03,1.55c.05,.57,.08,1.13,.08,1.7,0,.87,1.35,.87,1.35,0h0Z"/>
      <path class="cls-1" d="M10.31,8.41c.36,0,.73-.02,1.09-.03,.18,0,.37,0,.55,0h.1c-.07-.01-.06-.01,.02,0,.1,.01,.19,.02,.29,.03l-.34-.09,.05,.02-.31-.76c-.23,.94-.15,1.94-.22,2.9-.03,.41-.12,1.09,.2,1.41,.26,.26,.61,.23,.91,.1,.07-.03,.07-.04,.01-.01,.05-.02,.11-.04,.16-.06,.12-.05,.24-.09,.35-.15,.37-.18,.69-.44,.98-.62,.19-.12,.38-.31,.55-.46,.15-.14,.28-.29,.42-.44,.31-.36,.55-.73,.76-1.15,.16-.32,.4-.76,.49-1.17,.08-.36-.11-.73-.47-.83-.34-.09-.75,.11-.83,.47-.09,.38-.29,.77-.46,1.08-.2,.37-.42,.63-.71,.93-.15,.16-.32,.28-.48,.44-.05,.06-.05,.06,0,0-.05,.02-.09,.05-.13,.08-.1,.07-.19,.16-.28,.23-.11,.09-.32,.2-.48,.27-.01,0-.17,.07-.22,.09-.06,.03-.37,.15-.22,.1h.32c.13,.09,.27,.2,.4,.3l-.02-.03,.09,.34c-.03-.25,0-.54,0-.79,.01-.29,.01-.59,.03-.88,.05-.6,0-1.19,.14-1.76,.06-.26-.04-.64-.31-.76-.15-.07-.26-.1-.42-.12-.04,0-.03,0,.03,0-.05,0-.1-.02-.15-.02-.22-.03-.44-.02-.66-.02-.41,0-.82,.03-1.24,.03-.87,0-.87,1.35,0,1.35h0Z"/>
      <path class="cls-1" d="M15.72,8.43c.44,0,.86-.08,1.28-.08,.21,0,.41,0,.62,0,.12,0,.23,0,.35,0,.02,0,.32,0,.15-.02l-.4-.99c.09-.11-.05,.06-.09,.12-.03,.05-.06,.1-.09,.15-.06,.11-.12,.21-.17,.32-.11,.23-.24,.44-.34,.67-.07,.15-.12,.3-.17,.46-.02,.06-.04,.12-.06,.18,0,.01-.07,.15-.03,.08-.1,.19-.22,.37-.34,.55-.02,.03-.03,.04,0,.02,.03-.03,.02-.01-.04,.06-.05,.06-.09,.12-.13,.18-.03,.05-.06,.1-.1,.15-.07,.11,.09-.13-.04,.06-.05,.07-.1,.09-.21,.18-.05,.04-.11,.08-.15,.14-.09,.1,.07-.04-.08,.08-.13,.11-.22,.23-.34,.35-.16,.16,.04-.03-.07,.06-.05,.04-.1,.08-.15,.13-.04,.04-.21,.25-.12,.15,.05-.06,.14-.12-.09,.06-.09,.07-.17,.14-.25,.22-.25,.27-.27,.69,0,.96,.25,.25,.71,.27,.96,0,.04-.04,.08-.08,.12-.11,.02-.02,.12-.09,.05-.04,.07-.06,.15-.11,.21-.17,.02-.02,.21-.23,.08-.11,.12-.11,.22-.22,.34-.34,0,0,.08-.08,.04-.04,.07-.06,.08-.07,.04-.05-.06,.04-.02,.01,.12-.1,.03-.03,.07-.06,.09-.09,.12-.13-.05,.03,.04-.04,.12-.1,.25-.18,.35-.3s.19-.24,.27-.36c.1-.14,.1-.13,.2-.29,.29-.42,.51-.85,.66-1.33,.06-.17,.21-.41,.31-.62,.05-.11,.1-.22,.16-.32,.03-.05,.06-.11,.09-.16-.08,.13,.08-.1,.11-.15,.25-.33,0-.92-.4-.99-.45-.08-.94-.03-1.4-.03-.48,0-.88,.08-1.37,.08-.35,0-.69,.31-.68,.68s.3,.68,.68,.68h0Z"/>
    </g>
  </g>
</svg>